<mxfile host="app.diagrams.net" modified="2021-07-01T21:38:17.076Z" agent="5.0 (Windows NT 10.0; Win64; x64) AppleWebKit/537.36 (KHTML, like Gecko) Chrome/91.0.4472.114 Safari/537.36" etag="o3I7D3vFsmrKSIu7kt6b" version="14.8.3" type="github">
  <diagram id="73NzqNP45JI6zIFrakIY" name="Page-1">
    <mxGraphModel dx="1662" dy="762" grid="1" gridSize="10" guides="1" tooltips="1" connect="1" arrows="1" fold="1" page="1" pageScale="1" pageWidth="850" pageHeight="1100" math="0" shadow="0">
      <root>
        <mxCell id="0" />
        <mxCell id="1" parent="0" />
        <mxCell id="nH3BV0uBCH0y7o1oWO3n-1" value="Browser" style="shape=umlLifeline;perimeter=lifelinePerimeter;container=1;collapsible=0;recursiveResize=0;rounded=0;shadow=0;strokeWidth=1;" vertex="1" parent="1">
          <mxGeometry x="120" y="120" width="100" height="350" as="geometry" />
        </mxCell>
        <mxCell id="nH3BV0uBCH0y7o1oWO3n-2" value="API Docs App" style="shape=umlLifeline;perimeter=lifelinePerimeter;container=1;collapsible=0;recursiveResize=0;rounded=0;shadow=0;strokeWidth=1;" vertex="1" parent="1">
          <mxGeometry x="400" y="120" width="100" height="350" as="geometry" />
        </mxCell>
        <mxCell id="nH3BV0uBCH0y7o1oWO3n-3" value="&lt;font size=&quot;3&quot;&gt;Update Request Language Flow (version 1)&lt;/font&gt;" style="text;html=1;strokeColor=none;fillColor=none;align=center;verticalAlign=middle;whiteSpace=wrap;rounded=0;" vertex="1" parent="1">
          <mxGeometry x="260" y="40" width="340" height="20" as="geometry" />
        </mxCell>
        <mxCell id="nH3BV0uBCH0y7o1oWO3n-4" value="" style="shape=cylinder3;whiteSpace=wrap;html=1;boundedLbl=1;backgroundOutline=1;size=15;" vertex="1" parent="1">
          <mxGeometry x="670" y="190" width="60" height="150" as="geometry" />
        </mxCell>
        <mxCell id="nH3BV0uBCH0y7o1oWO3n-5" value="DB" style="text;html=1;strokeColor=none;fillColor=none;align=center;verticalAlign=middle;whiteSpace=wrap;rounded=0;" vertex="1" parent="1">
          <mxGeometry x="680" y="255" width="40" height="20" as="geometry" />
        </mxCell>
        <mxCell id="nH3BV0uBCH0y7o1oWO3n-6" value="" style="rounded=0;whiteSpace=wrap;html=1;" vertex="1" parent="1">
          <mxGeometry x="445" y="225" width="10" height="105" as="geometry" />
        </mxCell>
        <mxCell id="nH3BV0uBCH0y7o1oWO3n-7" value="" style="endArrow=classic;html=1;" edge="1" parent="1">
          <mxGeometry relative="1" as="geometry">
            <mxPoint x="455" y="240" as="sourcePoint" />
            <mxPoint x="669" y="240" as="targetPoint" />
          </mxGeometry>
        </mxCell>
        <mxCell id="nH3BV0uBCH0y7o1oWO3n-8" value="select specific&lt;br&gt;version of json" style="edgeLabel;resizable=0;html=1;align=center;verticalAlign=middle;" connectable="0" vertex="1" parent="nH3BV0uBCH0y7o1oWO3n-7">
          <mxGeometry relative="1" as="geometry" />
        </mxCell>
        <mxCell id="nH3BV0uBCH0y7o1oWO3n-9" value="" style="endArrow=classic;html=1;" edge="1" parent="1">
          <mxGeometry relative="1" as="geometry">
            <mxPoint x="670" y="265" as="sourcePoint" />
            <mxPoint x="459" y="265.5" as="targetPoint" />
          </mxGeometry>
        </mxCell>
        <mxCell id="nH3BV0uBCH0y7o1oWO3n-12" value="" style="rounded=0;whiteSpace=wrap;html=1;" vertex="1" parent="1">
          <mxGeometry x="165" y="350" width="10" height="80" as="geometry" />
        </mxCell>
        <mxCell id="nH3BV0uBCH0y7o1oWO3n-13" value="&lt;font style=&quot;font-size: 10px&quot;&gt;update template with json data&lt;/font&gt;" style="text;html=1;strokeColor=none;fillColor=none;align=center;verticalAlign=middle;whiteSpace=wrap;rounded=0;" vertex="1" parent="1">
          <mxGeometry x="175" y="410" width="85" height="20" as="geometry" />
        </mxCell>
        <mxCell id="nH3BV0uBCH0y7o1oWO3n-14" value="&lt;font style=&quot;font-size: 10px&quot;&gt;select version&lt;br&gt;specific template&lt;br&gt;&lt;/font&gt;" style="text;html=1;strokeColor=none;fillColor=none;align=center;verticalAlign=middle;whiteSpace=wrap;rounded=0;" vertex="1" parent="1">
          <mxGeometry x="175" y="370" width="85" height="20" as="geometry" />
        </mxCell>
        <mxCell id="nH3BV0uBCH0y7o1oWO3n-15" style="edgeStyle=orthogonalEdgeStyle;rounded=0;orthogonalLoop=1;jettySize=auto;html=1;exitX=0;exitY=0;exitDx=0;exitDy=0;" edge="1" parent="1">
          <mxGeometry relative="1" as="geometry">
            <mxPoint x="536" y="420" as="sourcePoint" />
            <mxPoint x="456" y="320" as="targetPoint" />
            <Array as="points">
              <mxPoint x="600" y="420" />
              <mxPoint x="600" y="320" />
            </Array>
          </mxGeometry>
        </mxCell>
        <mxCell id="nH3BV0uBCH0y7o1oWO3n-16" value="" style="whiteSpace=wrap;html=1;aspect=fixed;" vertex="1" parent="1">
          <mxGeometry x="530" y="420" width="130" height="130" as="geometry" />
        </mxCell>
        <mxCell id="nH3BV0uBCH0y7o1oWO3n-17" value="" style="endArrow=classic;html=1;entryX=0.47;entryY=0.194;entryDx=0;entryDy=0;entryPerimeter=0;exitX=0.5;exitY=0.2;exitDx=0;exitDy=0;exitPerimeter=0;" edge="1" parent="1" source="nH3BV0uBCH0y7o1oWO3n-1" target="nH3BV0uBCH0y7o1oWO3n-2">
          <mxGeometry relative="1" as="geometry">
            <mxPoint x="180" y="190" as="sourcePoint" />
            <mxPoint x="370" y="190" as="targetPoint" />
          </mxGeometry>
        </mxCell>
        <mxCell id="nH3BV0uBCH0y7o1oWO3n-18" value="get /api/docs?version=...&lt;br&gt;&amp;amp;language=..." style="edgeLabel;resizable=0;html=1;align=center;verticalAlign=middle;" connectable="0" vertex="1" parent="nH3BV0uBCH0y7o1oWO3n-17">
          <mxGeometry relative="1" as="geometry" />
        </mxCell>
        <mxCell id="nH3BV0uBCH0y7o1oWO3n-19" value="session: userId&lt;br&gt;session language" style="edgeLabel;resizable=0;html=1;align=left;verticalAlign=bottom;" connectable="0" vertex="1" parent="nH3BV0uBCH0y7o1oWO3n-17">
          <mxGeometry x="-1" relative="1" as="geometry">
            <mxPoint x="90" y="50" as="offset" />
          </mxGeometry>
        </mxCell>
        <mxCell id="nH3BV0uBCH0y7o1oWO3n-20" value="&lt;font style=&quot;font-size: 10px&quot;&gt;update json with store specific data if authenticated store&lt;/font&gt;" style="text;html=1;strokeColor=none;fillColor=none;align=center;verticalAlign=middle;whiteSpace=wrap;rounded=0;" vertex="1" parent="1">
          <mxGeometry x="545" y="490" width="100" height="30" as="geometry" />
        </mxCell>
        <mxCell id="nH3BV0uBCH0y7o1oWO3n-21" value="&lt;span style=&quot;font-size: 10px&quot;&gt;update request sections with data for chosen langage&lt;br&gt;&lt;/span&gt;" style="text;html=1;strokeColor=none;fillColor=none;align=center;verticalAlign=middle;whiteSpace=wrap;rounded=0;" vertex="1" parent="1">
          <mxGeometry x="550" y="440" width="90" height="20" as="geometry" />
        </mxCell>
        <mxCell id="nH3BV0uBCH0y7o1oWO3n-22" value="" style="endArrow=classic;html=1;entryX=0;entryY=0.5;entryDx=0;entryDy=0;entryPerimeter=0;" edge="1" parent="1">
          <mxGeometry relative="1" as="geometry">
            <mxPoint x="455.5" y="290" as="sourcePoint" />
            <mxPoint x="670.5" y="290" as="targetPoint" />
          </mxGeometry>
        </mxCell>
        <mxCell id="nH3BV0uBCH0y7o1oWO3n-23" value="get data for chosen request&lt;br&gt;language specified in query" style="edgeLabel;resizable=0;html=1;align=center;verticalAlign=middle;" connectable="0" vertex="1" parent="nH3BV0uBCH0y7o1oWO3n-22">
          <mxGeometry relative="1" as="geometry" />
        </mxCell>
        <mxCell id="nH3BV0uBCH0y7o1oWO3n-24" value="" style="endArrow=classic;html=1;" edge="1" parent="1">
          <mxGeometry width="50" height="50" relative="1" as="geometry">
            <mxPoint x="670" y="310" as="sourcePoint" />
            <mxPoint x="455" y="310" as="targetPoint" />
          </mxGeometry>
        </mxCell>
        <mxCell id="nH3BV0uBCH0y7o1oWO3n-25" style="edgeStyle=orthogonalEdgeStyle;rounded=0;orthogonalLoop=1;jettySize=auto;html=1;exitX=0.5;exitY=1;exitDx=0;exitDy=0;" edge="1" parent="1" source="nH3BV0uBCH0y7o1oWO3n-13" target="nH3BV0uBCH0y7o1oWO3n-13">
          <mxGeometry relative="1" as="geometry" />
        </mxCell>
        <mxCell id="nH3BV0uBCH0y7o1oWO3n-28" value="" style="endArrow=classic;html=1;entryX=0.49;entryY=0.629;entryDx=0;entryDy=0;entryPerimeter=0;exitX=0.48;exitY=0.631;exitDx=0;exitDy=0;exitPerimeter=0;" edge="1" parent="1" source="nH3BV0uBCH0y7o1oWO3n-2" target="nH3BV0uBCH0y7o1oWO3n-1">
          <mxGeometry relative="1" as="geometry">
            <mxPoint x="380" y="340" as="sourcePoint" />
            <mxPoint x="220" y="340" as="targetPoint" />
          </mxGeometry>
        </mxCell>
        <mxCell id="nH3BV0uBCH0y7o1oWO3n-29" value="json data" style="edgeLabel;resizable=0;html=1;align=center;verticalAlign=middle;" connectable="0" vertex="1" parent="nH3BV0uBCH0y7o1oWO3n-28">
          <mxGeometry relative="1" as="geometry" />
        </mxCell>
        <mxCell id="nH3BV0uBCH0y7o1oWO3n-30" value="set session: language in query" style="edgeLabel;resizable=0;html=1;align=left;verticalAlign=bottom;" connectable="0" vertex="1" parent="nH3BV0uBCH0y7o1oWO3n-28">
          <mxGeometry x="-1" relative="1" as="geometry">
            <mxPoint x="-188" y="29" as="offset" />
          </mxGeometry>
        </mxCell>
      </root>
    </mxGraphModel>
  </diagram>
</mxfile>
